<svg xmlns="http://www.w3.org/2000/svg" xmlns:xlink="http://www.w3.org/1999/xlink" width="1000" zoomAndPan="magnify" viewBox="0 0 750 187.499995" height="250" preserveAspectRatio="xMidYMid meet" version="1.2"><defs><clipPath id="86369ed721"><path d="M 6 48 L 104.410156 48 L 104.410156 138 L 6 138 Z M 6 48 "/></clipPath><clipPath id="a07ad3eb95"><path d="M 54.332031 49.558594 C 59.71875 47.597656 66.144531 48.992188 70.191406 53.050781 C 79.980469 62.777344 89.746094 72.546875 99.535156 82.273438 C 102.324219 85.039062 104.054688 88.824219 104.25 92.746094 C 104.410156 97.257812 102.324219 101.691406 99.023438 104.730469 C 89.296875 114.378906 79.664062 124.085938 69.917969 133.71875 C 65.0625 138.386719 56.710938 139.503906 51.265625 135.285156 C 51.246094 131.757812 52.054688 128.1875 53.722656 125.066406 C 55.355469 122.007812 58.421875 119.636719 61.9375 119.300781 C 64.671875 118.929688 67.265625 120.164062 69.976562 120.085938 C 71.882812 120.164062 74.066406 119.675781 75.164062 117.988281 C 76.011719 116.339844 75.441406 114.417969 75.953125 112.691406 C 76.640625 111.929688 77.523438 111.359375 78.328125 110.730469 C 78.113281 110.066406 77.839844 109.417969 77.621094 108.769531 C 79.507812 107.515625 78.566406 105.296875 78.664062 103.457031 C 79.902344 102.394531 81.925781 102.257812 82.75 100.75 C 82.710938 98.75 81.003906 97.355469 80.039062 95.746094 C 78.585938 93.472656 76.621094 90.824219 77.820312 88.019531 C 79.332031 83.332031 78.820312 78.097656 76.5 73.761719 C 74.222656 69.074219 69.9375 65.601562 65.261719 63.484375 C 60.425781 61.40625 55.179688 60.40625 49.929688 60.152344 C 46.785156 59.992188 43.699219 60.757812 40.636719 61.308594 C 42.621094 59.03125 44.839844 56.992188 46.964844 54.816406 C 49.066406 52.601562 51.386719 50.480469 54.332031 49.558594 Z M 12.804688 67.703125 C 10.230469 69.996094 10.507812 74.351562 13.121094 76.507812 C 17.1875 80.449219 21.0625 84.589844 25.226562 88.433594 C 25.265625 85.292969 25.421875 82.136719 25.71875 79.019531 C 27.210938 71.878906 32.027344 65.523438 38.589844 62.25 C 36.78125 60.347656 34.957031 58.445312 33.070312 56.621094 C 31.832031 55.425781 30.238281 54.324219 28.429688 54.484375 C 26.367188 54.421875 24.675781 55.777344 23.320312 57.167969 C 19.84375 60.71875 16.285156 64.171875 12.804688 67.703125 Z M 41.164062 72.976562 C 40.183594 73.996094 38.808594 75.113281 39.238281 76.722656 C 40.222656 78.546875 41.992188 79.800781 43.386719 81.3125 C 44.328125 82.175781 45.449219 83.585938 46.90625 82.941406 C 48.671875 81.84375 49.988281 80.195312 51.503906 78.78125 C 52.367188 77.839844 53.644531 76.761719 53.132812 75.332031 C 51.855469 73.410156 50.050781 71.917969 48.4375 70.289062 C 47.574219 69.546875 46.335938 68.367188 45.175781 69.289062 C 43.640625 70.328125 42.460938 71.742188 41.164062 72.976562 Z M 7.875 90.277344 C 7.164062 91.058594 6.164062 91.765625 6.046875 92.902344 C 5.671875 95.277344 8.246094 96.492188 9.542969 98.082031 C 11.019531 99.296875 12.375 101.847656 14.632812 101.042969 C 16.679688 99.808594 18.132812 97.847656 19.863281 96.238281 C 20.765625 95.238281 22.21875 93.882812 21.394531 92.414062 C 19.84375 90.296875 17.816406 88.550781 15.949219 86.707031 C 15.007812 85.6875 13.375 85.117188 12.195312 86.097656 C 10.605469 87.3125 9.328125 88.902344 7.875 90.277344 Z M 34.109375 89.453125 C 30.574219 92.921875 27.113281 96.472656 23.554688 99.945312 C 22.339844 101.121094 21.101562 102.535156 21.082031 104.335938 C 20.785156 106.300781 21.589844 108.261719 23.027344 109.613281 C 25.933594 112.535156 28.921875 115.398438 31.792969 118.359375 C 33.03125 119.597656 34.207031 120.949219 35.644531 121.988281 C 37.960938 123.695312 41.441406 123.324219 43.425781 121.28125 C 47.375 117.378906 51.285156 113.4375 55.21875 109.554688 C 57.617188 107.300781 57.832031 103.121094 55.394531 100.808594 C 51.582031 96.945312 47.730469 93.101562 43.878906 89.296875 C 42.285156 87.667969 39.96875 86.410156 37.648438 87.117188 C 36.292969 87.492188 35.132812 88.453125 34.109375 89.453125 Z M 34.109375 89.453125 "/></clipPath><linearGradient x1="24.317876" gradientTransform="matrix(0.19653,0,0,0.196126,6.006485,48.6772)" y1="-29.467168" x2="488.453581" gradientUnits="userSpaceOnUse" y2="474.381172" id="34fe1515f1"><stop style="stop-color:#0017a0;stop-opacity:1;" offset="0"/><stop style="stop-color:#0017a0;stop-opacity:1;" offset="0.25"/><stop style="stop-color:#0017a0;stop-opacity:1;" offset="0.3125"/><stop style="stop-color:#0018a0;stop-opacity:1;" offset="0.316406"/><stop style="stop-color:#0019a0;stop-opacity:1;" offset="0.320312"/><stop style="stop-color:#0019a0;stop-opacity:1;" offset="0.324219"/><stop style="stop-color:#001aa1;stop-opacity:1;" offset="0.328125"/><stop style="stop-color:#001ba1;stop-opacity:1;" offset="0.332031"/><stop style="stop-color:#001ca1;stop-opacity:1;" offset="0.335938"/><stop style="stop-color:#001da1;stop-opacity:1;" offset="0.339844"/><stop style="stop-color:#001da1;stop-opacity:1;" offset="0.34375"/><stop style="stop-color:#001ea2;stop-opacity:1;" offset="0.347656"/><stop style="stop-color:#001fa2;stop-opacity:1;" offset="0.351563"/><stop style="stop-color:#0020a2;stop-opacity:1;" offset="0.355469"/><stop style="stop-color:#0021a2;stop-opacity:1;" offset="0.359375"/><stop style="stop-color:#0021a2;stop-opacity:1;" offset="0.363281"/><stop style="stop-color:#0022a2;stop-opacity:1;" offset="0.367188"/><stop style="stop-color:#0023a3;stop-opacity:1;" offset="0.371094"/><stop style="stop-color:#0024a3;stop-opacity:1;" offset="0.375"/><stop style="stop-color:#0025a3;stop-opacity:1;" offset="0.378906"/><stop style="stop-color:#0025a3;stop-opacity:1;" offset="0.382813"/><stop style="stop-color:#0026a3;stop-opacity:1;" offset="0.386719"/><stop style="stop-color:#0027a4;stop-opacity:1;" offset="0.390625"/><stop style="stop-color:#0028a4;stop-opacity:1;" offset="0.394531"/><stop style="stop-color:#0028a4;stop-opacity:1;" offset="0.398438"/><stop style="stop-color:#0029a4;stop-opacity:1;" offset="0.402344"/><stop style="stop-color:#002aa4;stop-opacity:1;" offset="0.40625"/><stop style="stop-color:#002ba4;stop-opacity:1;" offset="0.410156"/><stop style="stop-color:#002ca5;stop-opacity:1;" offset="0.414063"/><stop style="stop-color:#002ca5;stop-opacity:1;" offset="0.417969"/><stop style="stop-color:#002da5;stop-opacity:1;" offset="0.421875"/><stop style="stop-color:#002ea5;stop-opacity:1;" offset="0.425781"/><stop style="stop-color:#002fa5;stop-opacity:1;" offset="0.429688"/><stop style="stop-color:#0030a6;stop-opacity:1;" offset="0.433594"/><stop style="stop-color:#0030a6;stop-opacity:1;" offset="0.4375"/><stop style="stop-color:#0031a6;stop-opacity:1;" offset="0.441406"/><stop style="stop-color:#0032a6;stop-opacity:1;" offset="0.445313"/><stop style="stop-color:#0033a6;stop-opacity:1;" offset="0.449219"/><stop style="stop-color:#0034a6;stop-opacity:1;" offset="0.453125"/><stop style="stop-color:#0034a7;stop-opacity:1;" offset="0.457031"/><stop style="stop-color:#0035a7;stop-opacity:1;" offset="0.460937"/><stop style="stop-color:#0036a7;stop-opacity:1;" offset="0.464844"/><stop style="stop-color:#0037a7;stop-opacity:1;" offset="0.46875"/><stop style="stop-color:#0038a7;stop-opacity:1;" offset="0.472656"/><stop style="stop-color:#0038a7;stop-opacity:1;" offset="0.476563"/><stop style="stop-color:#0039a8;stop-opacity:1;" offset="0.480469"/><stop style="stop-color:#003aa8;stop-opacity:1;" offset="0.484375"/><stop style="stop-color:#003ba8;stop-opacity:1;" offset="0.488281"/><stop style="stop-color:#003ba8;stop-opacity:1;" offset="0.492188"/><stop style="stop-color:#003ca8;stop-opacity:1;" offset="0.496094"/><stop style="stop-color:#003da9;stop-opacity:1;" offset="0.5"/><stop style="stop-color:#003ea9;stop-opacity:1;" offset="0.503906"/><stop style="stop-color:#003fa9;stop-opacity:1;" offset="0.507812"/><stop style="stop-color:#003fa9;stop-opacity:1;" offset="0.511719"/><stop style="stop-color:#0040a9;stop-opacity:1;" offset="0.515625"/><stop style="stop-color:#0041a9;stop-opacity:1;" offset="0.519531"/><stop style="stop-color:#0042aa;stop-opacity:1;" offset="0.523438"/><stop style="stop-color:#0043aa;stop-opacity:1;" offset="0.527344"/><stop style="stop-color:#0043aa;stop-opacity:1;" offset="0.53125"/><stop style="stop-color:#0044aa;stop-opacity:1;" offset="0.535156"/><stop style="stop-color:#0045aa;stop-opacity:1;" offset="0.539063"/><stop style="stop-color:#0046ab;stop-opacity:1;" offset="0.542969"/><stop style="stop-color:#0047ab;stop-opacity:1;" offset="0.546875"/><stop style="stop-color:#0047ab;stop-opacity:1;" offset="0.550781"/><stop style="stop-color:#0048ab;stop-opacity:1;" offset="0.554688"/><stop style="stop-color:#0049ab;stop-opacity:1;" offset="0.558594"/><stop style="stop-color:#004aab;stop-opacity:1;" offset="0.5625"/><stop style="stop-color:#004bac;stop-opacity:1;" offset="0.566406"/><stop style="stop-color:#004bac;stop-opacity:1;" offset="0.570313"/><stop style="stop-color:#004cac;stop-opacity:1;" offset="0.574219"/><stop style="stop-color:#004dac;stop-opacity:1;" offset="0.578125"/><stop style="stop-color:#004eac;stop-opacity:1;" offset="0.582031"/><stop style="stop-color:#004ead;stop-opacity:1;" offset="0.585938"/><stop style="stop-color:#004fad;stop-opacity:1;" offset="0.589844"/><stop style="stop-color:#0050ad;stop-opacity:1;" offset="0.59375"/><stop style="stop-color:#0051ad;stop-opacity:1;" offset="0.597656"/><stop style="stop-color:#0052ad;stop-opacity:1;" offset="0.601563"/><stop style="stop-color:#0052ad;stop-opacity:1;" offset="0.605469"/><stop style="stop-color:#0053ae;stop-opacity:1;" offset="0.609375"/><stop style="stop-color:#0054ae;stop-opacity:1;" offset="0.613281"/><stop style="stop-color:#0055ae;stop-opacity:1;" offset="0.617188"/><stop style="stop-color:#0056ae;stop-opacity:1;" offset="0.621094"/><stop style="stop-color:#0056ae;stop-opacity:1;" offset="0.625"/><stop style="stop-color:#0057af;stop-opacity:1;" offset="0.628906"/><stop style="stop-color:#0058af;stop-opacity:1;" offset="0.632812"/><stop style="stop-color:#0059af;stop-opacity:1;" offset="0.636719"/><stop style="stop-color:#005aaf;stop-opacity:1;" offset="0.640625"/><stop style="stop-color:#005aaf;stop-opacity:1;" offset="0.644531"/><stop style="stop-color:#005baf;stop-opacity:1;" offset="0.648438"/><stop style="stop-color:#005cb0;stop-opacity:1;" offset="0.652344"/><stop style="stop-color:#005db0;stop-opacity:1;" offset="0.65625"/><stop style="stop-color:#005db0;stop-opacity:1;" offset="0.660156"/><stop style="stop-color:#005eb0;stop-opacity:1;" offset="0.664063"/><stop style="stop-color:#005fb0;stop-opacity:1;" offset="0.667969"/><stop style="stop-color:#0060b1;stop-opacity:1;" offset="0.671875"/><stop style="stop-color:#0061b1;stop-opacity:1;" offset="0.675781"/><stop style="stop-color:#0061b1;stop-opacity:1;" offset="0.679688"/><stop style="stop-color:#0062b1;stop-opacity:1;" offset="0.683594"/><stop style="stop-color:#0063b1;stop-opacity:1;" offset="0.6875"/><stop style="stop-color:#0064b1;stop-opacity:1;" offset="0.691406"/><stop style="stop-color:#0065b2;stop-opacity:1;" offset="0.695312"/><stop style="stop-color:#0065b2;stop-opacity:1;" offset="0.699219"/><stop style="stop-color:#0066b2;stop-opacity:1;" offset="0.703125"/><stop style="stop-color:#0067b2;stop-opacity:1;" offset="0.707031"/><stop style="stop-color:#0068b2;stop-opacity:1;" offset="0.710938"/><stop style="stop-color:#0069b2;stop-opacity:1;" offset="0.714844"/><stop style="stop-color:#0069b3;stop-opacity:1;" offset="0.71875"/><stop style="stop-color:#006ab3;stop-opacity:1;" offset="0.722656"/><stop style="stop-color:#006bb3;stop-opacity:1;" offset="0.726563"/><stop style="stop-color:#006cb3;stop-opacity:1;" offset="0.730469"/><stop style="stop-color:#006db3;stop-opacity:1;" offset="0.734375"/><stop style="stop-color:#006db4;stop-opacity:1;" offset="0.738281"/><stop style="stop-color:#006eb4;stop-opacity:1;" offset="0.742188"/><stop style="stop-color:#006fb4;stop-opacity:1;" offset="0.746094"/><stop style="stop-color:#0070b4;stop-opacity:1;" offset="0.75"/><stop style="stop-color:#0070b4;stop-opacity:1;" offset="0.753906"/><stop style="stop-color:#0071b4;stop-opacity:1;" offset="0.757812"/><stop style="stop-color:#0072b5;stop-opacity:1;" offset="0.761719"/><stop style="stop-color:#0073b5;stop-opacity:1;" offset="0.765625"/><stop style="stop-color:#0074b5;stop-opacity:1;" offset="0.769531"/><stop style="stop-color:#0074b5;stop-opacity:1;" offset="0.773438"/><stop style="stop-color:#0075b5;stop-opacity:1;" offset="0.777344"/><stop style="stop-color:#0076b6;stop-opacity:1;" offset="0.78125"/><stop style="stop-color:#0077b6;stop-opacity:1;" offset="0.785156"/><stop style="stop-color:#0078b6;stop-opacity:1;" offset="0.789063"/><stop style="stop-color:#0078b6;stop-opacity:1;" offset="0.792969"/><stop style="stop-color:#0079b6;stop-opacity:1;" offset="0.796875"/><stop style="stop-color:#007ab6;stop-opacity:1;" offset="0.800781"/><stop style="stop-color:#007bb7;stop-opacity:1;" offset="0.804688"/><stop style="stop-color:#007cb7;stop-opacity:1;" offset="0.808594"/><stop style="stop-color:#007cb7;stop-opacity:1;" offset="0.8125"/><stop style="stop-color:#007db7;stop-opacity:1;" offset="0.816406"/><stop style="stop-color:#007eb7;stop-opacity:1;" offset="0.820312"/><stop style="stop-color:#007fb8;stop-opacity:1;" offset="0.824219"/><stop style="stop-color:#007fb8;stop-opacity:1;" offset="0.828125"/><stop style="stop-color:#0080b8;stop-opacity:1;" offset="0.832031"/><stop style="stop-color:#0081b8;stop-opacity:1;" offset="0.835938"/><stop style="stop-color:#0082b8;stop-opacity:1;" offset="0.839844"/><stop style="stop-color:#0083b8;stop-opacity:1;" offset="0.84375"/><stop style="stop-color:#0083b9;stop-opacity:1;" offset="0.847656"/><stop style="stop-color:#0084b9;stop-opacity:1;" offset="0.851562"/><stop style="stop-color:#0085b9;stop-opacity:1;" offset="0.855469"/><stop style="stop-color:#0086b9;stop-opacity:1;" offset="0.859375"/><stop style="stop-color:#0087b9;stop-opacity:1;" offset="0.863281"/><stop style="stop-color:#0087ba;stop-opacity:1;" offset="0.867188"/><stop style="stop-color:#0088ba;stop-opacity:1;" offset="0.871094"/><stop style="stop-color:#0089ba;stop-opacity:1;" offset="0.875"/><stop style="stop-color:#008aba;stop-opacity:1;" offset="0.878906"/><stop style="stop-color:#008bba;stop-opacity:1;" offset="0.882812"/><stop style="stop-color:#008bba;stop-opacity:1;" offset="0.886719"/><stop style="stop-color:#008cbb;stop-opacity:1;" offset="0.890625"/><stop style="stop-color:#008dbb;stop-opacity:1;" offset="0.894531"/><stop style="stop-color:#008ebb;stop-opacity:1;" offset="0.898438"/><stop style="stop-color:#008fbb;stop-opacity:1;" offset="0.902344"/><stop style="stop-color:#008fbb;stop-opacity:1;" offset="0.90625"/><stop style="stop-color:#0090bc;stop-opacity:1;" offset="0.910156"/><stop style="stop-color:#0091bc;stop-opacity:1;" offset="0.914062"/><stop style="stop-color:#0092bc;stop-opacity:1;" offset="0.917969"/><stop style="stop-color:#0092bc;stop-opacity:1;" offset="0.921875"/><stop style="stop-color:#0093bc;stop-opacity:1;" offset="0.925781"/><stop style="stop-color:#0094bc;stop-opacity:1;" offset="0.929688"/><stop style="stop-color:#0095bd;stop-opacity:1;" offset="0.933594"/><stop style="stop-color:#0096bd;stop-opacity:1;" offset="0.9375"/><stop style="stop-color:#0096bd;stop-opacity:1;" offset="0.941406"/><stop style="stop-color:#0097bd;stop-opacity:1;" offset="0.945312"/><stop style="stop-color:#0098bd;stop-opacity:1;" offset="0.949219"/><stop style="stop-color:#0099bd;stop-opacity:1;" offset="0.953125"/><stop style="stop-color:#009abe;stop-opacity:1;" offset="0.957031"/><stop style="stop-color:#009abe;stop-opacity:1;" offset="0.960938"/><stop style="stop-color:#009bbe;stop-opacity:1;" offset="0.964844"/><stop style="stop-color:#009cbe;stop-opacity:1;" offset="0.96875"/><stop style="stop-color:#009dbe;stop-opacity:1;" offset="0.972656"/><stop style="stop-color:#009ebf;stop-opacity:1;" offset="0.976562"/><stop style="stop-color:#009ebf;stop-opacity:1;" offset="0.980469"/><stop style="stop-color:#009fbf;stop-opacity:1;" offset="0.984375"/><stop style="stop-color:#00a0bf;stop-opacity:1;" offset="0.988281"/><stop style="stop-color:#00a1bf;stop-opacity:1;" offset="0.992188"/><stop style="stop-color:#00a1bf;stop-opacity:1;" offset="0.996094"/><stop style="stop-color:#00a2c0;stop-opacity:1;" offset="1"/></linearGradient></defs><g id="b876cfe0f5"><g clip-rule="nonzero" clip-path="url(#86369ed721)"><g clip-rule="nonzero" clip-path="url(#a07ad3eb95)"><path style=" stroke:none;fill-rule:nonzero;fill:url(#34fe1515f1);" d="M 5.671875 47.597656 L 5.671875 139.503906 L 104.410156 139.503906 L 104.410156 47.597656 Z M 5.671875 47.597656 "/></g></g><g style="fill:#0059af;fill-opacity:1;"><g transform="translate(126.4801, 113.040265)"><path style="stroke:none" d="M 13.484375 -7.640625 L 26.453125 -7.640625 L 26.453125 0 L 3.59375 0 L 3.59375 -40.625 L 13.484375 -40.625 Z M 13.484375 -7.640625 "/></g></g><g style="fill:#0059af;fill-opacity:1;"><g transform="translate(154.087357, 113.040265)"><path style="stroke:none" d="M 35.484375 -32.296875 L 35.484375 0 L 25.578125 0 L 25.578125 -4.40625 C 24.578125 -2.96875 23.21875 -1.816406 21.5 -0.953125 C 19.78125 -0.0859375 17.878906 0.34375 15.796875 0.34375 C 13.328125 0.34375 11.144531 -0.203125 9.25 -1.296875 C 7.363281 -2.398438 5.898438 -3.992188 4.859375 -6.078125 C 3.816406 -8.160156 3.296875 -10.609375 3.296875 -13.421875 L 3.296875 -32.296875 L 13.140625 -32.296875 L 13.140625 -14.765625 C 13.140625 -12.597656 13.695312 -10.914062 14.8125 -9.71875 C 15.9375 -8.519531 17.441406 -7.921875 19.328125 -7.921875 C 21.253906 -7.921875 22.773438 -8.519531 23.890625 -9.71875 C 25.015625 -10.914062 25.578125 -12.597656 25.578125 -14.765625 L 25.578125 -32.296875 Z M 35.484375 -32.296875 "/></g></g><g style="fill:#0059af;fill-opacity:1;"><g transform="translate(193.096363, 113.040265)"><path style="stroke:none" d="M 44.796875 -32.640625 C 48.804688 -32.640625 52 -31.421875 54.375 -28.984375 C 56.75 -26.554688 57.9375 -23.1875 57.9375 -18.875 L 57.9375 0 L 48.09375 0 L 48.09375 -17.53125 C 48.09375 -19.613281 47.539062 -21.222656 46.4375 -22.359375 C 45.34375 -23.503906 43.832031 -24.078125 41.90625 -24.078125 C 39.96875 -24.078125 38.445312 -23.503906 37.34375 -22.359375 C 36.25 -21.222656 35.703125 -19.613281 35.703125 -17.53125 L 35.703125 0 L 25.875 0 L 25.875 -17.53125 C 25.875 -19.613281 25.320312 -21.222656 24.21875 -22.359375 C 23.125 -23.503906 21.609375 -24.078125 19.671875 -24.078125 C 17.742188 -24.078125 16.226562 -23.503906 15.125 -22.359375 C 14.03125 -21.222656 13.484375 -19.613281 13.484375 -17.53125 L 13.484375 0 L 3.59375 0 L 3.59375 -32.296875 L 13.484375 -32.296875 L 13.484375 -28.25 C 14.484375 -29.59375 15.789062 -30.660156 17.40625 -31.453125 C 19.03125 -32.242188 20.867188 -32.640625 22.921875 -32.640625 C 25.347656 -32.640625 27.515625 -32.117188 29.421875 -31.078125 C 31.335938 -30.035156 32.835938 -28.550781 33.921875 -26.625 C 35.035156 -28.394531 36.554688 -29.835938 38.484375 -30.953125 C 40.410156 -32.078125 42.515625 -32.640625 44.796875 -32.640625 Z M 44.796875 -32.640625 "/></g></g><g style="fill:#0059af;fill-opacity:1;"><g transform="translate(254.387962, 113.040265)"><path style="stroke:none" d="M 1.625 -16.203125 C 1.625 -19.523438 2.25 -22.4375 3.5 -24.9375 C 4.75 -27.445312 6.453125 -29.375 8.609375 -30.71875 C 10.773438 -32.070312 13.191406 -32.75 15.859375 -32.75 C 18.128906 -32.75 20.125 -32.285156 21.84375 -31.359375 C 23.5625 -30.441406 24.882812 -29.226562 25.8125 -27.71875 L 25.8125 -32.296875 L 35.703125 -32.296875 L 35.703125 0 L 25.8125 0 L 25.8125 -4.578125 C 24.84375 -3.066406 23.5 -1.847656 21.78125 -0.921875 C 20.070312 0.00390625 18.078125 0.46875 15.796875 0.46875 C 13.171875 0.46875 10.773438 -0.210938 8.609375 -1.578125 C 6.453125 -2.953125 4.75 -4.90625 3.5 -7.4375 C 2.25 -9.96875 1.625 -12.890625 1.625 -16.203125 Z M 25.8125 -16.140625 C 25.8125 -18.609375 25.125 -20.554688 23.75 -21.984375 C 22.382812 -23.421875 20.71875 -24.140625 18.75 -24.140625 C 16.78125 -24.140625 15.109375 -23.429688 13.734375 -22.015625 C 12.367188 -20.609375 11.6875 -18.671875 11.6875 -16.203125 C 11.6875 -13.734375 12.367188 -11.773438 13.734375 -10.328125 C 15.109375 -8.878906 16.78125 -8.15625 18.75 -8.15625 C 20.71875 -8.15625 22.382812 -8.867188 23.75 -10.296875 C 25.125 -11.722656 25.8125 -13.671875 25.8125 -16.140625 Z M 25.8125 -16.140625 "/></g></g><g style="fill:#0059af;fill-opacity:1;"><g transform="translate(293.68635, 113.040265)"><path style="stroke:none" d="M 32.8125 -40.625 L 32.8125 -32.703125 L 22.046875 -32.703125 L 22.046875 0 L 12.15625 0 L 12.15625 -32.703125 L 1.390625 -32.703125 L 1.390625 -40.625 Z M 32.8125 -40.625 "/></g></g><g style="fill:#0059af;fill-opacity:1;"><g transform="translate(327.891566, 113.040265)"><path style="stroke:none" d="M 34.03125 -16.671875 C 34.03125 -15.742188 33.972656 -14.78125 33.859375 -13.78125 L 11.453125 -13.78125 C 11.609375 -11.769531 12.253906 -10.234375 13.390625 -9.171875 C 14.535156 -8.109375 15.9375 -7.578125 17.59375 -7.578125 C 20.0625 -7.578125 21.78125 -8.617188 22.75 -10.703125 L 33.28125 -10.703125 C 32.738281 -8.585938 31.765625 -6.679688 30.359375 -4.984375 C 28.953125 -3.285156 27.1875 -1.953125 25.0625 -0.984375 C 22.9375 -0.015625 20.5625 0.46875 17.9375 0.46875 C 14.78125 0.46875 11.960938 -0.207031 9.484375 -1.5625 C 7.015625 -2.914062 5.085938 -4.84375 3.703125 -7.34375 C 2.316406 -9.851562 1.625 -12.785156 1.625 -16.140625 C 1.625 -19.503906 2.304688 -22.4375 3.671875 -24.9375 C 5.046875 -27.445312 6.96875 -29.375 9.4375 -30.71875 C 11.90625 -32.070312 14.738281 -32.75 17.9375 -32.75 C 21.0625 -32.75 23.835938 -32.09375 26.265625 -30.78125 C 28.703125 -29.476562 30.601562 -27.609375 31.96875 -25.171875 C 33.34375 -22.742188 34.03125 -19.910156 34.03125 -16.671875 Z M 23.90625 -19.265625 C 23.90625 -20.960938 23.328125 -22.3125 22.171875 -23.3125 C 21.015625 -24.320312 19.566406 -24.828125 17.828125 -24.828125 C 16.171875 -24.828125 14.769531 -24.34375 13.625 -23.375 C 12.488281 -22.414062 11.785156 -21.046875 11.515625 -19.265625 Z M 23.90625 -19.265625 "/></g></g><g style="fill:#0059af;fill-opacity:1;"><g transform="translate(363.543715, 113.040265)"><path style="stroke:none" d="M 1.625 -16.140625 C 1.625 -19.503906 2.304688 -22.4375 3.671875 -24.9375 C 5.046875 -27.445312 6.957031 -29.375 9.40625 -30.71875 C 11.851562 -32.070312 14.660156 -32.75 17.828125 -32.75 C 21.878906 -32.75 25.265625 -31.6875 27.984375 -29.5625 C 30.703125 -27.445312 32.488281 -24.460938 33.34375 -20.609375 L 22.796875 -20.609375 C 21.910156 -23.078125 20.195312 -24.3125 17.65625 -24.3125 C 15.84375 -24.3125 14.394531 -23.601562 13.3125 -22.1875 C 12.226562 -20.78125 11.6875 -18.765625 11.6875 -16.140625 C 11.6875 -13.523438 12.226562 -11.507812 13.3125 -10.09375 C 14.394531 -8.6875 15.84375 -7.984375 17.65625 -7.984375 C 20.195312 -7.984375 21.910156 -9.21875 22.796875 -11.6875 L 33.34375 -11.6875 C 32.488281 -7.90625 30.691406 -4.929688 27.953125 -2.765625 C 25.210938 -0.609375 21.835938 0.46875 17.828125 0.46875 C 14.660156 0.46875 11.851562 -0.207031 9.40625 -1.5625 C 6.957031 -2.914062 5.046875 -4.84375 3.671875 -7.34375 C 2.304688 -9.851562 1.625 -12.785156 1.625 -16.140625 Z M 1.625 -16.140625 "/></g></g><g style="fill:#0059af;fill-opacity:1;"><g transform="translate(398.559209, 113.040265)"><path style="stroke:none" d="M 23.4375 -32.640625 C 27.144531 -32.640625 30.113281 -31.414062 32.34375 -28.96875 C 34.582031 -26.519531 35.703125 -23.15625 35.703125 -18.875 L 35.703125 0 L 25.875 0 L 25.875 -17.53125 C 25.875 -19.695312 25.3125 -21.375 24.1875 -22.5625 C 23.070312 -23.757812 21.566406 -24.359375 19.671875 -24.359375 C 17.785156 -24.359375 16.28125 -23.757812 15.15625 -22.5625 C 14.039062 -21.375 13.484375 -19.695312 13.484375 -17.53125 L 13.484375 0 L 3.59375 0 L 3.59375 -42.828125 L 13.484375 -42.828125 L 13.484375 -27.953125 C 14.484375 -29.378906 15.851562 -30.515625 17.59375 -31.359375 C 19.332031 -32.210938 21.28125 -32.640625 23.4375 -32.640625 Z M 23.4375 -32.640625 "/></g></g><g style="fill:#0059af;fill-opacity:1;"><g transform="translate(437.568227, 113.040265)"><path style="stroke:none" d=""/></g></g><g style="fill:#ffffff;fill-opacity:1;"><g transform="translate(449.84044, 113.040265)"><path style="stroke:none" d="M 28.875 -7.171875 L 13.71875 -7.171875 L 11.28125 0 L 0.921875 0 L 15.625 -40.625 L 27.078125 -40.625 L 41.78125 0 L 31.3125 0 Z M 26.328125 -14.8125 L 21.296875 -29.6875 L 16.328125 -14.8125 Z M 26.328125 -14.8125 "/></g></g><g style="fill:#ffffff;fill-opacity:1;"><g transform="translate(492.495687, 113.040265)"><path style="stroke:none" d="M 1.625 -16.140625 C 1.625 -19.503906 2.304688 -22.4375 3.671875 -24.9375 C 5.046875 -27.445312 6.957031 -29.375 9.40625 -30.71875 C 11.851562 -32.070312 14.660156 -32.75 17.828125 -32.75 C 21.878906 -32.75 25.265625 -31.6875 27.984375 -29.5625 C 30.703125 -27.445312 32.488281 -24.460938 33.34375 -20.609375 L 22.796875 -20.609375 C 21.910156 -23.078125 20.195312 -24.3125 17.65625 -24.3125 C 15.84375 -24.3125 14.394531 -23.601562 13.3125 -22.1875 C 12.226562 -20.78125 11.6875 -18.765625 11.6875 -16.140625 C 11.6875 -13.523438 12.226562 -11.507812 13.3125 -10.09375 C 14.394531 -8.6875 15.84375 -7.984375 17.65625 -7.984375 C 20.195312 -7.984375 21.910156 -9.21875 22.796875 -11.6875 L 33.34375 -11.6875 C 32.488281 -7.90625 30.691406 -4.929688 27.953125 -2.765625 C 25.210938 -0.609375 21.835938 0.46875 17.828125 0.46875 C 14.660156 0.46875 11.851562 -0.207031 9.40625 -1.5625 C 6.957031 -2.914062 5.046875 -4.84375 3.671875 -7.34375 C 2.304688 -9.851562 1.625 -12.785156 1.625 -16.140625 Z M 1.625 -16.140625 "/></g></g><g style="fill:#ffffff;fill-opacity:1;"><g transform="translate(527.511181, 113.040265)"><path style="stroke:none" d="M 1.625 -16.203125 C 1.625 -19.523438 2.25 -22.4375 3.5 -24.9375 C 4.75 -27.445312 6.453125 -29.375 8.609375 -30.71875 C 10.773438 -32.070312 13.191406 -32.75 15.859375 -32.75 C 18.128906 -32.75 20.125 -32.285156 21.84375 -31.359375 C 23.5625 -30.441406 24.882812 -29.226562 25.8125 -27.71875 L 25.8125 -32.296875 L 35.703125 -32.296875 L 35.703125 0 L 25.8125 0 L 25.8125 -4.578125 C 24.84375 -3.066406 23.5 -1.847656 21.78125 -0.921875 C 20.070312 0.00390625 18.078125 0.46875 15.796875 0.46875 C 13.171875 0.46875 10.773438 -0.210938 8.609375 -1.578125 C 6.453125 -2.953125 4.75 -4.90625 3.5 -7.4375 C 2.25 -9.96875 1.625 -12.890625 1.625 -16.203125 Z M 25.8125 -16.140625 C 25.8125 -18.609375 25.125 -20.554688 23.75 -21.984375 C 22.382812 -23.421875 20.71875 -24.140625 18.75 -24.140625 C 16.78125 -24.140625 15.109375 -23.429688 13.734375 -22.015625 C 12.367188 -20.609375 11.6875 -18.671875 11.6875 -16.203125 C 11.6875 -13.734375 12.367188 -11.773438 13.734375 -10.328125 C 15.109375 -8.878906 16.78125 -8.15625 18.75 -8.15625 C 20.71875 -8.15625 22.382812 -8.867188 23.75 -10.296875 C 25.125 -11.722656 25.8125 -13.671875 25.8125 -16.140625 Z M 25.8125 -16.140625 "/></g></g><g style="fill:#ffffff;fill-opacity:1;"><g transform="translate(566.809569, 113.040265)"><path style="stroke:none" d="M 1.625 -16.203125 C 1.625 -19.523438 2.25 -22.4375 3.5 -24.9375 C 4.75 -27.445312 6.453125 -29.375 8.609375 -30.71875 C 10.773438 -32.070312 13.191406 -32.75 15.859375 -32.75 C 17.984375 -32.75 19.921875 -32.304688 21.671875 -31.421875 C 23.429688 -30.535156 24.8125 -29.34375 25.8125 -27.84375 L 25.8125 -42.828125 L 35.703125 -42.828125 L 35.703125 0 L 25.8125 0 L 25.8125 -4.625 C 24.882812 -3.082031 23.5625 -1.847656 21.84375 -0.921875 C 20.125 0.00390625 18.128906 0.46875 15.859375 0.46875 C 13.191406 0.46875 10.773438 -0.210938 8.609375 -1.578125 C 6.453125 -2.953125 4.75 -4.90625 3.5 -7.4375 C 2.25 -9.96875 1.625 -12.890625 1.625 -16.203125 Z M 25.8125 -16.140625 C 25.8125 -18.609375 25.125 -20.554688 23.75 -21.984375 C 22.382812 -23.421875 20.71875 -24.140625 18.75 -24.140625 C 16.78125 -24.140625 15.109375 -23.429688 13.734375 -22.015625 C 12.367188 -20.609375 11.6875 -18.671875 11.6875 -16.203125 C 11.6875 -13.734375 12.367188 -11.773438 13.734375 -10.328125 C 15.109375 -8.878906 16.78125 -8.15625 18.75 -8.15625 C 20.71875 -8.15625 22.382812 -8.867188 23.75 -10.296875 C 25.125 -11.722656 25.8125 -13.671875 25.8125 -16.140625 Z M 25.8125 -16.140625 "/></g></g><g style="fill:#ffffff;fill-opacity:1;"><g transform="translate(606.107958, 113.040265)"><path style="stroke:none" d="M 34.03125 -16.671875 C 34.03125 -15.742188 33.972656 -14.78125 33.859375 -13.78125 L 11.453125 -13.78125 C 11.609375 -11.769531 12.253906 -10.234375 13.390625 -9.171875 C 14.535156 -8.109375 15.9375 -7.578125 17.59375 -7.578125 C 20.0625 -7.578125 21.78125 -8.617188 22.75 -10.703125 L 33.28125 -10.703125 C 32.738281 -8.585938 31.765625 -6.679688 30.359375 -4.984375 C 28.953125 -3.285156 27.1875 -1.953125 25.0625 -0.984375 C 22.9375 -0.015625 20.5625 0.46875 17.9375 0.46875 C 14.78125 0.46875 11.960938 -0.207031 9.484375 -1.5625 C 7.015625 -2.914062 5.085938 -4.84375 3.703125 -7.34375 C 2.316406 -9.851562 1.625 -12.785156 1.625 -16.140625 C 1.625 -19.503906 2.304688 -22.4375 3.671875 -24.9375 C 5.046875 -27.445312 6.96875 -29.375 9.4375 -30.71875 C 11.90625 -32.070312 14.738281 -32.75 17.9375 -32.75 C 21.0625 -32.75 23.835938 -32.09375 26.265625 -30.78125 C 28.703125 -29.476562 30.601562 -27.609375 31.96875 -25.171875 C 33.34375 -22.742188 34.03125 -19.910156 34.03125 -16.671875 Z M 23.90625 -19.265625 C 23.90625 -20.960938 23.328125 -22.3125 22.171875 -23.3125 C 21.015625 -24.320312 19.566406 -24.828125 17.828125 -24.828125 C 16.171875 -24.828125 14.769531 -24.34375 13.625 -23.375 C 12.488281 -22.414062 11.785156 -21.046875 11.515625 -19.265625 Z M 23.90625 -19.265625 "/></g></g><g style="fill:#ffffff;fill-opacity:1;"><g transform="translate(641.760106, 113.040265)"><path style="stroke:none" d="M 44.796875 -32.640625 C 48.804688 -32.640625 52 -31.421875 54.375 -28.984375 C 56.75 -26.554688 57.9375 -23.1875 57.9375 -18.875 L 57.9375 0 L 48.09375 0 L 48.09375 -17.53125 C 48.09375 -19.613281 47.539062 -21.222656 46.4375 -22.359375 C 45.34375 -23.503906 43.832031 -24.078125 41.90625 -24.078125 C 39.96875 -24.078125 38.445312 -23.503906 37.34375 -22.359375 C 36.25 -21.222656 35.703125 -19.613281 35.703125 -17.53125 L 35.703125 0 L 25.875 0 L 25.875 -17.53125 C 25.875 -19.613281 25.320312 -21.222656 24.21875 -22.359375 C 23.125 -23.503906 21.609375 -24.078125 19.671875 -24.078125 C 17.742188 -24.078125 16.226562 -23.503906 15.125 -22.359375 C 14.03125 -21.222656 13.484375 -19.613281 13.484375 -17.53125 L 13.484375 0 L 3.59375 0 L 3.59375 -32.296875 L 13.484375 -32.296875 L 13.484375 -28.25 C 14.484375 -29.59375 15.789062 -30.660156 17.40625 -31.453125 C 19.03125 -32.242188 20.867188 -32.640625 22.921875 -32.640625 C 25.347656 -32.640625 27.515625 -32.117188 29.421875 -31.078125 C 31.335938 -30.035156 32.835938 -28.550781 33.921875 -26.625 C 35.035156 -28.394531 36.554688 -29.835938 38.484375 -30.953125 C 40.410156 -32.078125 42.515625 -32.640625 44.796875 -32.640625 Z M 44.796875 -32.640625 "/></g></g><g style="fill:#ffffff;fill-opacity:1;"><g transform="translate(703.051704, 113.040265)"><path style="stroke:none" d="M 36.578125 -32.296875 L 16.328125 15.34375 L 5.671875 15.34375 L 13.078125 -1.09375 L -0.0625 -32.296875 L 11 -32.296875 L 18.46875 -12.09375 L 25.875 -32.296875 Z M 36.578125 -32.296875 "/></g></g></g></svg>